<?xml version="1.0" encoding="utf-8"?>
<svg id="master-artboard" viewBox="0 0 334.9955749511719 359.9999694824219" version="1.1" xmlns="http://www.w3.org/2000/svg" x="0px" y="0px" style="enable-background:new 0 0 1400 980;" width="334.9955749511719px" height="359.9999694824219px"><rect id="ee-background" x="0" y="0" width="334.9955749511719" height="359.9999694824219" style="fill: white; fill-opacity: 0; pointer-events: none;"/><g transform="matrix(0.5859373807907104, 0, 0, 0.654296875, 14.997787475585938, 9.999999999999886)"><path d="M304 48c0-26.5-21.5-48-48-48s-48 21.5-48 48s21.5 48 48 48s48-21.5 48-48zm0 416c0-26.5-21.5-48-48-48s-48 21.5-48 48s21.5 48 48 48s48-21.5 48-48zM48 304c26.5 0 48-21.5 48-48s-21.5-48-48-48s-48 21.5-48 48s21.5 48 48 48zm464-48c0-26.5-21.5-48-48-48s-48 21.5-48 48s21.5 48 48 48s48-21.5 48-48zM142.9 437c18.7-18.7 18.7-49.1 0-67.9s-49.1-18.7-67.9 0s-18.7 49.1 0 67.9s49.1 18.7 67.9 0zm0-294.2c18.7-18.7 18.7-49.1 0-67.9S93.7 56.2 75 75s-18.7 49.1 0 67.9s49.1 18.7 67.9 0zM369.1 437c18.7 18.7 49.1 18.7 67.9 0s18.7-49.1 0-67.9s-49.1-18.7-67.9 0s-18.7 49.1 0 67.9z" style="fill: rgb(255, 255, 255);"/><path d="M 122.48650360107422 107.13934326171875" style="fill-opacity: 1; stroke: rgb(0, 0, 0); stroke-opacity: 1; stroke-width: 10; paint-order: fill;"/></g></svg>